<svg xmlns="http://www.w3.org/2000/svg" width="1200" height="630" viewBox="0 0 1200 630" role="img" aria-labelledby="title desc">
  <title id="title">Grana</title>
  <desc id="desc">Open Graph preview image for the Grana app.</desc>
  <defs>
    <linearGradient id="bg" x1="0" y1="0" x2="1" y2="1">
      <stop offset="0" stop-color="#ffdb00"/>
      <stop offset="0.54" stop-color="#f4f1e9"/>
      <stop offset="1" stop-color="#00e0c6"/>
    </linearGradient>
    <filter id="shadow" x="-20%" y="-20%" width="140%" height="140%">
      <feDropShadow dx="0" dy="18" stdDeviation="18" flood-color="#0a0a0a" flood-opacity="0.18"/>
    </filter>
  </defs>
  <rect width="1200" height="630" fill="url(#bg)"/>
  <rect x="74" y="70" width="1052" height="490" rx="40" fill="#fffdf8" stroke="#0a0a0a" stroke-width="10" filter="url(#shadow)"/>
  <g transform="translate(112 118)">
    <rect width="142" height="142" rx="28" fill="#ffdb00" stroke="#0a0a0a" stroke-width="8"/>
    <rect x="28" y="40" width="86" height="70" rx="10" fill="#fff" stroke="#0a0a0a" stroke-width="7"/>
    <path d="M31 59h80" stroke="#0a0a0a" stroke-width="7"/>
    <path d="M83 72h31v28H83c-10 0-18-6-18-14s8-14 18-14Z" fill="#00e0c6" stroke="#0a0a0a" stroke-width="7"/>
    <circle cx="84" cy="86" r="4" fill="#0a0a0a"/>
  </g>
  <text x="286" y="192" fill="#0a0a0a" font-family="Inter, Arial, sans-serif" font-size="92" font-weight="800">Grana</text>
  <text x="290" y="256" fill="#2b2b2b" font-family="Inter, Arial, sans-serif" font-size="34" font-weight="500">Contas, transações, faturas e recorrências.</text>
  <g transform="translate(112 328)" font-family="Inter, Arial, sans-serif">
    <rect width="296" height="126" rx="24" fill="#0a0a0a"/>
    <text x="28" y="48" fill="#f4f1e9" font-size="23" font-weight="700">Saldo</text>
    <text x="28" y="95" fill="#ffdb00" font-size="42" font-weight="800">R$ 8.420,00</text>
    <rect x="328" width="296" height="126" rx="24" fill="#f4f1e9" stroke="#0a0a0a" stroke-width="6"/>
    <text x="356" y="48" fill="#0a0a0a" font-size="23" font-weight="700">Entradas</text>
    <text x="356" y="95" fill="#087f23" font-size="42" font-weight="800">+ R$ 6.200</text>
    <rect x="656" width="296" height="126" rx="24" fill="#f4f1e9" stroke="#0a0a0a" stroke-width="6"/>
    <text x="684" y="48" fill="#0a0a0a" font-size="23" font-weight="700">Gastos</text>
    <text x="684" y="95" fill="#a11212" font-size="42" font-weight="800">- R$ 2.180</text>
  </g>
  <g transform="translate(800 122)" stroke="#0a0a0a" stroke-width="8" stroke-linecap="round" stroke-linejoin="round" fill="none">
    <path d="M0 132c44 0 44-58 88-58s44 94 88 94 44-136 88-136 44 70 88 70"/>
    <path d="M352 102l-34-24"/>
    <path d="M352 102l-22 36"/>
  </g>
  <text x="112" y="508" fill="#474747" font-family="Inter, Arial, sans-serif" font-size="28" font-weight="600">grana.up.railway.app</text>
</svg>
